<?xml version="1.0" encoding="UTF-8" standalone="no" ?>
<!DOCTYPE svg PUBLIC "-//W3C//DTD SVG 1.1//EN" "http://www.w3.org/Graphics/SVG/1.1/DTD/svg11.dtd">
<svg xmlns="http://www.w3.org/2000/svg" xmlns:xlink="http://www.w3.org/1999/xlink" version="1.1" width="500" height="500" viewBox="0 0 500 500" xml:space="preserve">
<desc>Created with Fabric.js 4.6.0</desc>
<defs>
</defs>
<g transform="matrix(1 0 0 1 249.28 250)" id="AmoPVtAoET9OnMDFt0jl3"  >
<path style="stroke: rgb(112,11,123); stroke-width: 1; stroke-dasharray: none; stroke-linecap: butt; stroke-dashoffset: 0; stroke-linejoin: miter; stroke-miterlimit: 4; fill: rgb(97,231,49); fill-rule: nonzero; opacity: 1;" vector-effect="non-scaling-stroke"  transform=" translate(-250, -250)" d="M 0 106.06602 C 0 47.487379999999995 47.48737 0 106.06602 0 L 393.93397999999996 0 L 393.93397999999996 0 C 452.51261999999997 0 499.99999999999994 47.48737 499.99999999999994 106.06602 L 499.99999999999994 393.93397999999996 L 499.99999999999994 393.93397999999996 C 499.99999999999994 452.51261999999997 452.51262999999994 499.99999999999994 393.93397999999996 499.99999999999994 L 106.06601999999998 499.99999999999994 L 106.06601999999998 499.99999999999994 C 47.48737999999998 499.99999999999994 -1.4210854715202004e-14 452.51262999999994 -1.4210854715202004e-14 393.93397999999996 z" stroke-linecap="round" />
</g>
<g transform="matrix(1 0 0 1 247.5 251.5)" id="Bp3cOV5gQYXcFjAEYC2ST"  >
<path style="stroke: rgb(0,0,0); stroke-width: 1; stroke-dasharray: none; stroke-linecap: butt; stroke-dashoffset: 0; stroke-linejoin: miter; stroke-miterlimit: 4; fill: rgb(218,219,114); fill-rule: nonzero; opacity: 1;" vector-effect="non-scaling-stroke"  transform=" translate(-234.5, -234.5)" d="M 234.5 0 C 363.94399999999996 0 469 105.056 469 234.5 C 469 363.94399999999996 363.944 469 234.5 469 C 105.05600000000001 469 0 363.944 0 234.5 C 0 105.05600000000001 105.056 0 234.5 0 z" stroke-linecap="round" />
</g>
<g transform="matrix(1 0 0 1 185.5 196.5)" id="TO0wQRrWwZVl6ywy7cU9p"  >
<path style="stroke: rgb(244,245,169); stroke-width: 1; stroke-dasharray: none; stroke-linecap: butt; stroke-dashoffset: 0; stroke-linejoin: miter; stroke-miterlimit: 4; fill: rgb(244,245,169); fill-rule: nonzero; opacity: 1;" vector-effect="non-scaling-stroke"  transform=" translate(-110.5, -110.5)" d="M 110.5 0 C 171.496 0 221 49.504 221 110.5 C 221 171.496 171.496 221 110.5 221 C 49.504 221 0 171.496 0 110.5 C 0 49.504 49.504 0 110.5 0 z" stroke-linecap="round" />
</g>
<g transform="matrix(1 0 0 1 122.59 115.08)" id="Vg-Q6N6klIWm_F7YJ_pe7"  >
<path style="stroke: rgb(0,0,0); stroke-width: 1; stroke-dasharray: none; stroke-linecap: butt; stroke-dashoffset: 0; stroke-linejoin: miter; stroke-miterlimit: 4; fill: rgb(255,255,255); fill-rule: nonzero; opacity: 1;" vector-effect="non-scaling-stroke"  transform=" translate(0, 0)" d="M 0 0" stroke-linecap="round" />
</g>
<g transform="matrix(1 0 0 1 122.09 110.03)" id="zlXcTBfX-0zslqhrDV77W"  >
<path style="stroke: rgb(0,0,0); stroke-width: 1; stroke-dasharray: none; stroke-linecap: butt; stroke-dashoffset: 0; stroke-linejoin: miter; stroke-miterlimit: 4; fill: rgb(255,255,255); fill-rule: nonzero; opacity: 1;" vector-effect="non-scaling-stroke"  transform=" translate(0, 0)" d="M 0 0" stroke-linecap="round" />
</g>
<g transform="matrix(1 0 0 1 314.5 196.5)" id="UADnFWCkyPB6nrHFxoYBz"  >
<path style="stroke: rgb(244,245,169); stroke-width: 1; stroke-dasharray: none; stroke-linecap: butt; stroke-dashoffset: 0; stroke-linejoin: miter; stroke-miterlimit: 4; fill: rgb(244,245,169); fill-rule: nonzero; opacity: 1;" vector-effect="non-scaling-stroke"  transform=" translate(-110.5, -110.5)" d="M 110.50001 0 C 171.49601 0 221.00002 49.504 221.00002 110.50001 C 221.00002 171.49601 171.49602000000002 221.00002 110.50001 221.00002 C 49.50401 221.00002 0 171.49602000000002 0 110.50001 C 0 49.50401 49.504 0 110.50001 0 z" stroke-linecap="round" />
</g>
<g transform="matrix(1 0 0 1 250 307.81)" id="dbkn22-Y9MQq2jFWEk_MV"  >
<path style="stroke: rgb(244,245,169); stroke-width: 1; stroke-dasharray: none; stroke-linecap: butt; stroke-dashoffset: 0; stroke-linejoin: miter; stroke-miterlimit: 4; fill: rgb(244,245,169); fill-rule: nonzero; opacity: 1;" vector-effect="non-scaling-stroke"  transform=" translate(-125, -125)" d="M 0 53.03301 C 0 23.743689999999997 23.74369 0 53.03301 0 L 196.96698999999998 0 L 196.96698999999998 0 C 226.25630999999998 0 249.99999999999997 23.74369 249.99999999999997 53.03301 L 249.99999999999997 196.96698999999998 L 249.99999999999997 196.96698999999998 C 249.99999999999997 226.25630999999998 226.25630999999998 249.99999999999997 196.96698999999998 249.99999999999997 L 53.03300999999999 249.99999999999997 L 53.03300999999999 249.99999999999997 C 23.74368999999999 249.99999999999997 -7.105427357601002e-15 226.25630999999998 -7.105427357601002e-15 196.96698999999998 z" stroke-linecap="round" />
</g>
<g transform="matrix(1 0 0 1 193.5 201)" id="46gqIifvYkcrqxqhk6nzA"  >
<path style="stroke: rgb(70,67,67); stroke-width: 1; stroke-dasharray: none; stroke-linecap: butt; stroke-dashoffset: 0; stroke-linejoin: miter; stroke-miterlimit: 4; fill: rgb(70,67,67); fill-rule: nonzero; opacity: 1;" vector-effect="non-scaling-stroke"  transform=" translate(-93.5, -93.5)" d="M 93.50001 0 C 145.11201 0 187.00002 41.888 187.00002 93.50001 C 187.00002 145.11201 145.11202 187.00002 93.50001 187.00002 C 41.88801 187.00002 0 145.11202 0 93.50001 C 0 41.88801 41.888 0 93.50001 0 z" stroke-linecap="round" />
</g>
<g transform="matrix(1 0 0 1 298.61 203.5)" id="V274k8T-SGq64lFEMKKKA"  >
<path style="stroke: rgb(70,67,67); stroke-width: 1; stroke-dasharray: none; stroke-linecap: butt; stroke-dashoffset: 0; stroke-linejoin: miter; stroke-miterlimit: 4; fill: rgb(70,67,67); fill-rule: nonzero; opacity: 1;" vector-effect="non-scaling-stroke"  transform=" translate(-93.5, -93.5)" d="M 93.50001 0 C 145.11201 0 187.00002 41.888 187.00002 93.50001 C 187.00002 145.11201 145.11202 187.00002 93.50001 187.00002 C 41.88801 187.00002 0 145.11202 0 93.50001 C 0 41.88801 41.888 0 93.50001 0 z" stroke-linecap="round" />
</g>
<g transform="matrix(1 0 0 1 250 295)" id="SNiujraLWqivEe0y1mhaX"  >
<path style="stroke: rgb(70,67,67); stroke-width: 1; stroke-dasharray: none; stroke-linecap: butt; stroke-dashoffset: 0; stroke-linejoin: miter; stroke-miterlimit: 4; fill: rgb(70,67,67); fill-rule: nonzero; opacity: 1;" vector-effect="non-scaling-stroke"  transform=" translate(0, 0)" d="M -105 -60.45227 C -105 -85.0553 -85.0553 -105 -60.45227 -105 L 60.45227 -105 L 60.45227 -105 C 85.0553 -105 105 -85.0553 105 -60.45227 L 105 60.45227 L 105 60.45227 C 105 85.0553 85.0553 105 60.45227 105 L -60.45227 105 L -60.45227 105 C -85.0553 105 -105 85.0553 -105 60.45227 z" stroke-linecap="round" />
</g>
<g transform="matrix(1 0 0 1 171.61 192.44)" id="pIPWZ2Q8tHDV85duBCMeg"  >
<path style="stroke: rgb(0,0,0); stroke-width: 1; stroke-dasharray: none; stroke-linecap: butt; stroke-dashoffset: 0; stroke-linejoin: miter; stroke-miterlimit: 4; fill: rgb(0,0,0); fill-rule: nonzero; opacity: 1;" vector-effect="non-scaling-stroke"  transform=" translate(-32.5, -32.5)" d="M 32.5 0 C 50.44 0 65 14.56 65 32.5 C 65 50.44 50.44 65 32.5 65 C 14.559999999999999 65 0 50.44 0 32.5 C 0 14.559999999999999 14.56 0 32.5 0 z" stroke-linecap="round" />
</g>
<g transform="matrix(1 0 0 1 315.24 192.44)" id="aCpWcpznPXjUEHDzJkG9E"  >
<path style="stroke: rgb(0,0,0); stroke-width: 1; stroke-dasharray: none; stroke-linecap: butt; stroke-dashoffset: 0; stroke-linejoin: miter; stroke-miterlimit: 4; fill: rgb(0,0,0); fill-rule: nonzero; opacity: 1;" vector-effect="non-scaling-stroke"  transform=" translate(-32.5, -32.5)" d="M 32.5 0 C 50.44 0 65 14.56 65 32.5 C 65 50.44 50.44 65 32.5 65 C 14.559999999999999 65 0 50.44 0 32.5 C 0 14.559999999999999 14.56 0 32.5 0 z" stroke-linecap="round" />
</g>
<g transform="matrix(1 0 0 1 171.61 313.06)" id="FflY3Kcnw37JBhqWWxxWy"  >
<path style="stroke: rgb(0,0,0); stroke-width: 1; stroke-dasharray: none; stroke-linecap: butt; stroke-dashoffset: 0; stroke-linejoin: miter; stroke-miterlimit: 4; fill: rgb(255,255,255); fill-rule: nonzero; opacity: 1;" vector-effect="non-scaling-stroke"  transform=" translate(0, 0)" d="M 0 0" stroke-linecap="round" />
</g>
<g transform="matrix(1 0 0 1 250 321.54)" id="x7upTo1m2XOVZM8zC1SxE"  >
<path style="stroke: rgb(0,0,0); stroke-width: 10; stroke-dasharray: none; stroke-linecap: butt; stroke-dashoffset: 0; stroke-linejoin: miter; stroke-miterlimit: 4; fill: rgb(255,255,255); fill-opacity: 0; fill-rule: nonzero; opacity: 1;" vector-effect="non-scaling-stroke"  transform=" translate(0, 0)" d="M -72.06761 -19.03595 C -72.06761 -19.03595 3.3976399999999956 66.62582 72.06761 -19.03595" stroke-linecap="round" />
</g>
</svg>